<?xml version="1.0" encoding="UTF-8" standalone="no"?>
<!DOCTYPE svg PUBLIC "-//W3C//DTD SVG 1.1//EN" "http://www.w3.org/Graphics/SVG/1.1/DTD/svg11.dtd">
<svg width="100%" height="100%" viewBox="0 0 1920 1080" version="1.1" xmlns="http://www.w3.org/2000/svg" xmlns:xlink="http://www.w3.org/1999/xlink" xml:space="preserve" xmlns:serif="http://www.serif.com/" style="fill-rule:evenodd;clip-rule:evenodd;stroke-linejoin:round;stroke-miterlimit:2;">
    <g transform="matrix(1.33336,0,0,1.33336,-310.677,-23.4986)">
        <g transform="matrix(18.41,0,0,18.41,-14846.8,-6144.52)">
            <g>
                <path d="M839.717,350.113C839.652,349.919 839.533,349.795 839.316,349.869L839.074,350.004L838.818,350.183L838.224,350.955L837.898,351.752L837.699,352.628L837.68,353.437C837.79,354.765 838.459,354.903 838.596,354.932L839.208,354.88L839.637,354.597L839.92,354.276L840.279,354L840.875,353.857L841.331,353.99L841.44,354.32L841.536,354.63L841.856,354.714C842.175,354.909 841.816,355.421 841.781,355.471L841.592,355.75C840.77,356.722 839.845,357.149 839.669,357.23L838.05,357.612C837.844,357.626 836.652,357.702 835.814,356.317C835.674,356.106 834.94,355.002 834.893,353.291C834.886,353.044 834.847,351.774 835.511,350.255C836.113,348.85 836.877,348.274 837.043,348.149C837.211,347.993 838.088,347.175 839.578,346.824C841.158,346.495 841.762,347.134 841.892,347.271C842.014,347.4 842.592,348.01 842.34,349.451L841.77,350.366L840.8,350.919C840.241,351.099 840.029,350.899 839.982,350.853L839.717,350.113Z"/>
                <path d="M843.713,346.904C844.409,345.842 845.326,345.465 845.499,345.394L846.974,345.158C847.049,345.067 847.439,344.595 848.335,344.59C848.459,344.59 849.155,344.586 849.794,345.122L849.95,345.356L850.179,345.703C850.326,345.914 850.941,346.799 850.672,348.882C850.352,351.344 849.327,353.013 849.13,353.334L848.276,354.375C848.154,354.504 847.521,355.18 846.302,355.391L844.956,355.341C842.602,354.893 842.488,352.073 842.474,351.722C842.369,348.991 843.498,347.239 843.713,346.904ZM845.381,353.056L845.385,353.129L845.442,353.252L845.825,353.746L846.167,353.919L846.377,353.687L846.558,353.438C846.673,353.228 847.2,352.259 847.398,350.571C847.603,348.823 847.294,347.761 847.226,347.527L846.351,349.103L845.713,350.601C845.248,351.987 845.357,352.86 845.381,353.056Z"/>
                <path d="M852.942,345.44C853.798,344.506 854.76,344.286 854.941,344.245L856.429,344.255C856.517,344.177 856.978,343.775 857.859,343.918C857.982,343.938 858.667,344.048 859.208,344.683L859.324,344.939L859.492,345.318C859.602,345.551 860.063,346.525 859.456,348.535C858.737,350.91 857.455,352.389 857.208,352.674L856.198,353.56C856.058,353.667 855.325,354.229 854.095,354.237L852.784,353.966C850.551,353.134 850.9,350.334 850.943,349.985C851.285,347.274 852.676,345.734 852.942,345.44ZM853.573,351.782L853.565,351.855L853.6,351.985L853.896,352.536L854.203,352.763L854.447,352.569L854.665,352.353C854.812,352.164 855.488,351.296 855.959,349.664C856.447,347.973 856.317,346.875 856.288,346.633L855.171,348.043L854.3,349.416C853.617,350.706 853.581,351.585 853.573,351.782Z"/>
                <path d="M861.973,344.909C862.301,344.38 862.74,344.56 862.806,344.587L863.099,344.279L863.342,344.19L863.605,344.128L864.032,344.093L864.664,344.129L865.353,344.253L865.918,344.494C865.979,344.536 866.451,344.853 866.032,345.411L866.014,345.432L865.851,345.613L865.733,345.704L865.178,346.362L864.435,347.216L863.689,348.161L864.905,347.656L866.621,346.955L867.131,346.85L867.398,346.881L867.656,346.997L867.987,347.184C868.044,347.212 868.308,347.345 868.216,347.94L867.762,348.754C866.234,349.892 864.927,350.1 864.659,350.143L863.662,350.274C863.786,350.302 864.368,350.436 864.88,351.292L865.405,352.676L865.587,353.699L865.607,354.203L865.352,354.426L864.68,354.491L863.888,353.887L863.343,353.312L862.747,352.726L861.734,352.031L861.633,351.998L861.356,352.516L860.928,353.318L860.442,354.07L859.544,354.221C858.968,354.133 858.825,353.799 858.797,353.734C858.675,353.324 859.24,351.735 859.299,351.567L860.071,349.371L860.662,347.813L861.038,346.852L861.287,346.179L861.973,344.909Z"/>
                <path d="M873.786,347.605L872.217,349.604L870.969,351.273L869.957,352.698L869.111,353.963C868.797,354.694 868.157,354.831 868.049,354.855L867.083,354.825L866.299,354.55L866.01,354.16L866.105,353.647L866.544,352.875L867.344,351.559L868.406,349.893L870.604,347.075L871.141,346.746L871.598,346.69L872.004,346.667L872.408,346.404L873.021,346.165L873.721,346.35L874.099,346.866C874.114,346.929 874.176,347.195 873.786,347.605Z"/>
                <path d="M873.964,354.615L875.004,355.075L876.098,355.404L876.285,355.675L876.224,355.89L876.151,356.1L876.309,356.362L876.293,356.583L875.951,356.849L874.761,357.143L873.344,356.878L871.612,356.229C871.514,356.177 870.619,355.712 870.844,355.079C870.961,354.679 871.588,352.534 873.5,350.596L874.966,349.246L875.236,348.882L875.422,348.451L875.638,348.094L876.016,347.958C879.192,348.043 880.568,348.878 880.911,349.087C881.491,349.361 881.528,349.678 881.537,349.751L881.265,350.438L880.388,350.879L879.18,350.828L878.105,350.675L877.478,350.836L876.946,351.168L876.534,351.562L876.387,351.788L876.972,352.088L877.669,352.28L878.165,352.482L878.104,352.841L877.428,353.331L876.403,353.534L875.919,353.441L875.72,353.409L875.199,353.251L873.975,354.389L873.964,354.615Z"/>
            </g>
        </g>
        <g transform="matrix(13.4351,0,0,13.4351,-10543.6,-4277.95)">
            <path d="M843.046,348.713L843.094,348.725C843.294,348.845 843.468,348.979 843.616,349.127C843.764,349.275 843.9,349.431 844.024,349.595C844.148,349.759 844.246,349.937 844.318,350.129C844.622,350.865 844.358,351.689 843.526,352.601C843.174,352.985 842.778,353.313 842.338,353.585C842.45,353.665 842.556,353.723 842.656,353.759C842.756,353.795 842.898,353.863 843.082,353.963C843.266,354.063 843.386,354.251 843.442,354.527C843.498,354.803 843.484,355.113 843.4,355.457C843.316,355.801 843.164,356.155 842.944,356.519C842.724,356.883 842.438,357.209 842.086,357.497C841.286,358.161 840.358,358.441 839.302,358.337C839.15,358.337 839.054,358.325 839.014,358.301C838.974,358.277 838.942,358.257 838.918,358.241C838.894,358.225 838.842,358.213 838.762,358.205C838.562,358.365 838.334,358.465 838.078,358.505C837.822,358.545 837.58,358.525 837.352,358.445C837.124,358.365 836.932,358.229 836.776,358.037C836.62,357.845 836.542,357.593 836.542,357.281C836.566,357.073 836.606,356.909 836.662,356.789C836.638,356.717 836.626,356.629 836.626,356.525C836.898,355.077 837.154,353.969 837.394,353.201C837.882,351.673 838.41,350.521 838.978,349.745C839.442,349.089 840.086,348.665 840.91,348.473C841.702,348.289 842.414,348.369 843.046,348.713ZM839.314,357.089C839.41,357.065 839.492,357.059 839.56,357.071C839.628,357.083 839.71,357.081 839.806,357.065C840.038,357.041 840.35,356.897 840.742,356.633C840.99,356.385 841.122,356.141 841.138,355.901C841.154,355.661 841.118,355.507 841.03,355.439C840.942,355.371 840.824,355.337 840.676,355.337C840.528,355.337 840.364,355.359 840.184,355.403C840.004,355.447 839.83,355.473 839.662,355.481L839.662,355.505C839.622,355.665 839.582,355.805 839.542,355.925C839.502,356.045 839.466,356.161 839.434,356.273C839.362,356.537 839.306,356.809 839.266,357.089L839.314,357.089ZM841.546,350.849C841.306,350.817 841.046,351.005 840.766,351.413C840.59,351.669 840.454,352.057 840.358,352.577C840.526,352.505 840.692,352.443 840.856,352.391C841.02,352.339 841.174,352.281 841.318,352.217C841.67,352.065 841.922,351.881 842.074,351.665C842.25,351.457 842.306,351.281 842.242,351.137C842.146,351.009 841.99,350.893 841.774,350.789C841.71,350.845 841.634,350.865 841.546,350.849ZM841.366,350.801L841.402,350.801L841.366,350.801Z" style="fill-rule:nonzero;"/>
            <path d="M846.442,356.249C846.906,356.297 847.252,356.321 847.48,356.321C847.708,356.321 848.054,356.289 848.518,356.225C848.662,356.273 848.746,356.333 848.77,356.405C848.794,356.477 848.802,356.551 848.794,356.627C848.786,356.703 848.79,356.777 848.806,356.849C848.822,356.921 848.898,356.981 849.034,357.029C849.106,357.053 849.128,357.123 849.1,357.239C849.072,357.355 849.006,357.481 848.902,357.617C848.638,357.961 848.326,358.201 847.966,358.337C847.39,358.481 846.938,358.565 846.61,358.589C846.066,358.629 845.474,358.609 844.834,358.529C844.13,358.401 843.79,358.109 843.814,357.653C843.814,355.973 844.182,354.285 844.918,352.589C845.158,352.037 845.43,351.457 845.734,350.849C845.798,350.721 845.836,350.577 845.848,350.417C845.86,350.257 845.87,350.101 845.878,349.949C845.886,349.797 845.91,349.661 845.95,349.541C845.99,349.421 846.074,349.337 846.202,349.289C847.866,348.625 849.182,348.369 850.15,348.521C850.486,348.529 850.708,348.643 850.816,348.863C850.924,349.083 850.936,349.329 850.852,349.601C850.768,349.873 850.604,350.129 850.36,350.369C850.116,350.609 849.81,350.757 849.442,350.813C848.97,350.949 848.682,351.041 848.578,351.089C848.378,351.185 848.234,351.313 848.146,351.473C848.034,351.649 847.93,351.817 847.834,351.977C847.738,352.137 847.67,352.309 847.63,352.493L847.582,352.757C847.734,352.829 847.92,352.851 848.14,352.823C848.36,352.795 848.564,352.767 848.752,352.739C848.94,352.711 849.092,352.709 849.208,352.733C849.324,352.757 849.348,352.875 849.28,353.087C849.212,353.299 849.088,353.537 848.908,353.801C848.728,354.065 848.474,354.257 848.146,354.377C847.938,354.417 847.796,354.447 847.72,354.467C847.644,354.487 847.586,354.501 847.546,354.509C847.49,354.517 847.33,354.529 847.066,354.545C846.69,355.185 846.462,355.681 846.382,356.033C846.35,356.177 846.37,356.249 846.442,356.249Z" style="fill-rule:nonzero;"/>
            <path d="M856.654,349.625C856.926,349.769 857.098,349.981 857.17,350.261C857.01,351.157 856.866,352.047 856.738,352.931C856.61,353.815 856.486,354.555 856.366,355.151C856.246,355.747 856.164,356.193 856.12,356.489C856.076,356.785 856.026,357.081 855.97,357.377L855.898,357.629C855.882,357.717 855.866,357.799 855.85,357.875C855.834,357.951 855.818,358.033 855.802,358.121C855.578,358.377 855.274,358.505 854.89,358.505C854.482,358.505 854.158,358.401 853.918,358.193C853.774,358.081 853.75,357.845 853.846,357.485C853.886,357.341 853.912,357.155 853.924,356.927C853.936,356.699 853.95,356.509 853.966,356.357L853.966,356.333C853.726,356.421 853.51,356.535 853.318,356.675C853.126,356.815 853.006,356.903 852.958,356.939C852.91,356.975 852.846,357.003 852.766,357.023C852.686,357.043 852.614,357.057 852.55,357.065C852.398,357.073 852.294,357.097 852.238,357.137C851.774,357.969 851.358,358.433 850.99,358.529C850.758,358.601 850.526,358.619 850.294,358.583C850.062,358.547 849.878,358.409 849.742,358.169C849.486,357.929 849.55,357.273 849.934,356.201C850.142,355.633 850.44,354.951 850.828,354.155C851.216,353.359 851.59,352.665 851.95,352.073C852.726,350.801 853.578,349.729 854.506,348.857C854.658,348.793 854.822,348.719 854.998,348.635C855.174,348.551 855.348,348.505 855.52,348.497C855.692,348.489 855.87,348.509 856.054,348.557C856.238,348.605 856.394,348.677 856.522,348.773C856.818,348.997 856.862,349.281 856.654,349.625ZM854.086,352.781C853.918,353.261 853.75,353.703 853.582,354.107C853.414,354.511 853.27,354.865 853.15,355.169L854.098,355.133C854.162,354.621 854.234,354.113 854.314,353.609C854.394,353.105 854.47,352.601 854.542,352.097L854.086,352.781ZM853.762,355.181C853.874,355.181 853.986,355.173 854.098,355.157L854.098,355.145C853.994,355.153 853.898,355.161 853.81,355.169C853.722,355.177 853.706,355.181 853.762,355.181Z" style="fill-rule:nonzero;"/>
            <path d="M857.602,353.105C857.762,352.569 857.892,352.155 857.992,351.863C858.092,351.571 858.19,351.309 858.286,351.077C858.382,350.845 858.492,350.621 858.616,350.405C858.74,350.189 858.876,349.991 859.024,349.811C859.172,349.631 859.33,349.489 859.498,349.385C859.666,349.281 859.842,349.229 860.026,349.229C860.21,349.229 860.402,349.301 860.602,349.445C860.922,350.245 861.118,350.781 861.19,351.053C861.286,351.453 861.374,352.017 861.454,352.745C861.526,352.561 861.608,352.367 861.7,352.163C861.792,351.959 861.882,351.753 861.97,351.545C862.218,351.017 862.374,350.617 862.438,350.345C862.614,349.785 862.978,349.365 863.53,349.085C864.01,348.845 864.458,348.769 864.874,348.857C865.042,348.889 865.16,348.957 865.228,349.061C865.296,349.165 865.296,349.273 865.228,349.385C865.16,349.497 865.136,349.603 865.156,349.703C865.176,349.803 865.194,349.921 865.21,350.057C865.234,350.425 865.17,350.751 865.018,351.035C864.866,351.319 864.71,351.671 864.55,352.091C864.39,352.511 864.228,352.957 864.064,353.429C863.9,353.901 863.734,354.381 863.566,354.869C863.398,355.357 863.234,355.801 863.074,356.201C862.722,357.121 862.434,357.629 862.21,357.725C861.906,357.909 861.682,358.017 861.538,358.049C861.354,358.081 861.094,358.081 860.758,358.049C860.55,358.033 860.37,357.765 860.218,357.245C860.13,356.965 860.05,356.577 859.978,356.081C859.85,355.217 859.762,354.741 859.714,354.653C859.394,355.693 859.168,356.349 859.036,356.621C858.904,356.893 858.804,357.073 858.736,357.161C858.668,357.249 858.586,357.365 858.49,357.509C858.386,357.797 858.138,358.009 857.746,358.145C857.41,358.273 857.106,358.293 856.834,358.205C856.538,358.109 856.45,357.925 856.57,357.653C856.658,356.693 857.002,355.177 857.602,353.105Z" style="fill-rule:nonzero;"/>
            <path d="M866.338,358.457C865.93,358.473 865.556,358.423 865.216,358.307C864.876,358.191 864.6,358.033 864.388,357.833C864.176,357.633 864.042,357.399 863.986,357.131C863.93,356.863 863.978,356.589 864.13,356.309C864.338,355.973 864.754,355.873 865.378,356.009C865.85,356.105 866.176,356.157 866.356,356.165C866.536,356.173 866.69,356.149 866.818,356.093C867.402,355.901 867.73,355.693 867.802,355.469C867.85,355.301 867.746,355.105 867.49,354.881C867.386,354.785 867.27,354.689 867.142,354.593C867.014,354.497 866.906,354.401 866.818,354.305C866.418,354.009 866.104,353.667 865.876,353.279C865.648,352.891 865.554,352.469 865.594,352.013C865.634,351.557 865.71,351.179 865.822,350.879C865.934,350.579 866.074,350.313 866.242,350.081C866.538,349.673 866.922,349.341 867.394,349.085C867.938,348.805 868.374,348.625 868.702,348.545C869.35,348.401 870.006,348.389 870.67,348.509C870.894,348.549 871.086,348.625 871.246,348.737C871.406,348.849 871.566,348.965 871.726,349.085C872.006,349.365 872.074,349.649 871.93,349.937C871.874,350.065 871.786,350.169 871.666,350.249C871.546,350.329 871.418,350.373 871.282,350.381C871.298,350.597 871.258,350.757 871.162,350.861C870.978,351.045 870.658,351.165 870.202,351.221C869.546,351.173 869.102,351.209 868.87,351.329C868.598,351.473 868.498,351.785 868.57,352.265C868.586,352.369 868.652,352.477 868.768,352.589C868.884,352.701 869.02,352.821 869.176,352.949C869.332,353.077 869.496,353.221 869.668,353.381C869.84,353.541 869.99,353.725 870.118,353.933C870.566,354.669 870.53,355.529 870.01,356.513C869.626,357.249 868.97,357.801 868.042,358.169C867.562,358.361 866.994,358.457 866.338,358.457Z" style="fill-rule:nonzero;"/>
        </g>
        <g transform="matrix(12.8411,0,0,12.8411,-9957.4,-3935.42)">
            <path d="M836.933,354.515C836.933,354.202 836.983,353.876 837.085,353.536C837.186,353.197 837.327,352.859 837.507,352.523C837.686,352.187 837.899,351.866 838.145,351.562C838.392,351.257 838.663,350.988 838.96,350.753C839.257,350.519 839.569,350.331 839.897,350.191C840.226,350.058 840.554,349.991 840.882,349.991C841.069,349.991 841.21,350.062 841.304,350.202C841.397,350.343 841.444,350.499 841.444,350.671C841.444,350.773 841.425,350.89 841.386,351.023C841.347,351.156 841.288,351.286 841.21,351.415C841.132,351.544 841.044,351.654 840.946,351.743C840.849,351.833 840.741,351.878 840.624,351.878C840.624,351.8 840.636,351.724 840.659,351.65C840.683,351.575 840.714,351.505 840.753,351.439C840.792,351.372 840.823,351.304 840.847,351.234C840.87,351.163 840.882,351.085 840.882,350.999C840.882,350.89 840.837,350.825 840.747,350.806C840.657,350.786 840.569,350.777 840.483,350.777L840.319,350.777C839.96,350.917 839.608,351.103 839.265,351.333C838.921,351.564 838.616,351.829 838.351,352.13C838.085,352.431 837.874,352.763 837.718,353.126C837.561,353.49 837.483,353.878 837.483,354.292C837.483,354.558 837.509,354.849 837.56,355.165C837.61,355.482 837.698,355.775 837.823,356.044C837.948,356.314 838.118,356.538 838.333,356.718C838.548,356.898 838.815,356.988 839.136,356.988C839.401,356.988 839.665,356.962 839.927,356.911C840.188,356.861 840.45,356.806 840.712,356.747C840.974,356.689 841.235,356.636 841.497,356.589C841.759,356.542 842.022,356.519 842.288,356.519C842.351,356.519 842.413,356.527 842.476,356.542C842.538,356.558 842.569,356.605 842.569,356.683C842.569,356.722 842.546,356.771 842.499,356.829C842.452,356.888 842.394,356.945 842.323,356.999C842.253,357.054 842.186,357.097 842.124,357.128C842.061,357.159 842.022,357.179 842.007,357.187L839.3,357.761C839.284,357.761 839.251,357.763 839.2,357.767C839.149,357.771 839.108,357.773 839.077,357.773C838.819,357.773 838.587,357.72 838.38,357.615C838.173,357.509 837.989,357.372 837.829,357.204C837.669,357.036 837.532,356.841 837.419,356.618C837.306,356.396 837.212,356.163 837.138,355.921C837.063,355.679 837.011,355.437 836.979,355.195C836.948,354.952 836.933,354.726 836.933,354.515Z" style="fill-rule:nonzero;"/>
            <path d="M843.12,355.781C843.128,355.648 843.167,355.495 843.237,355.324C843.308,355.152 843.417,354.984 843.565,354.82C843.714,354.656 843.901,354.509 844.128,354.38C844.354,354.251 844.622,354.159 844.931,354.105C845.239,354.05 845.591,354.046 845.985,354.093C846.38,354.14 846.819,354.257 847.304,354.445L847.304,354.327L847.292,354.222C847.292,354.019 847.233,353.812 847.116,353.601C846.999,353.39 846.849,353.2 846.665,353.033C846.481,352.865 846.284,352.728 846.073,352.622C845.862,352.517 845.659,352.464 845.464,352.464C845.386,352.464 845.317,352.476 845.259,352.499C845.2,352.523 845.144,352.552 845.089,352.587C845.034,352.622 844.981,352.654 844.931,352.681C844.88,352.708 844.819,352.722 844.749,352.722C844.733,352.722 844.726,352.718 844.726,352.71C844.718,352.702 844.71,352.695 844.702,352.687C844.686,352.671 844.665,352.652 844.638,352.628C844.61,352.605 844.597,352.589 844.597,352.581C844.597,352.441 844.622,352.32 844.673,352.218C844.724,352.116 844.794,352.034 844.884,351.972C844.974,351.909 845.075,351.861 845.188,351.825C845.302,351.79 845.421,351.773 845.546,351.773C845.858,351.804 846.157,351.9 846.442,352.06C846.727,352.22 846.989,352.421 847.227,352.663C847.466,352.906 847.675,353.185 847.854,353.501C848.034,353.818 848.185,354.146 848.306,354.486C848.427,354.825 848.507,355.167 848.546,355.511C848.593,355.87 848.597,356.206 848.558,356.519C848.55,356.519 848.526,356.517 848.487,356.513C848.448,356.509 848.405,356.505 848.358,356.501C848.311,356.497 848.272,356.491 848.241,356.484L848.183,356.472C848.019,356.105 847.835,355.808 847.632,355.581C847.429,355.355 847.227,355.177 847.028,355.048C846.829,354.919 846.644,354.829 846.472,354.779C846.3,354.728 846.159,354.691 846.05,354.667C845.933,354.667 845.794,354.675 845.634,354.691C845.474,354.706 845.308,354.734 845.136,354.773C844.964,354.812 844.79,354.865 844.614,354.931C844.438,354.997 844.282,355.077 844.145,355.171C844.009,355.265 843.899,355.376 843.817,355.505C843.735,355.634 843.694,355.784 843.694,355.956C843.694,356.144 843.769,356.302 843.917,356.431C844.065,356.56 844.245,356.665 844.456,356.747C844.667,356.829 844.882,356.886 845.101,356.917C845.319,356.949 845.495,356.964 845.628,356.964C845.847,356.964 846.061,356.952 846.272,356.929C846.483,356.906 846.692,356.878 846.899,356.847C847.106,356.816 847.311,356.788 847.515,356.765C847.718,356.741 847.921,356.73 848.124,356.73L848.206,356.73C848.245,356.73 848.286,356.732 848.329,356.736C848.372,356.74 848.411,356.741 848.446,356.741L848.522,356.741C848.585,356.765 848.62,356.8 848.628,356.847C848.636,356.894 848.64,356.941 848.64,356.988C848.64,357.034 848.591,357.085 848.493,357.14C848.395,357.195 848.269,357.249 848.112,357.304C847.956,357.359 847.782,357.415 847.591,357.474C847.399,357.533 847.216,357.581 847.04,357.62C846.864,357.659 846.7,357.693 846.548,357.72C846.395,357.747 846.288,357.761 846.226,357.761C845.897,357.761 845.55,357.734 845.183,357.679C844.815,357.624 844.479,357.525 844.175,357.38C843.87,357.236 843.618,357.034 843.419,356.777C843.22,356.519 843.12,356.187 843.12,355.781Z" style="fill-rule:nonzero;"/>
            <path d="M852.929,354.034C853.093,354.034 853.163,354.113 853.14,354.269C853.21,354.355 853.208,354.435 853.134,354.509C853.06,354.583 852.936,354.638 852.765,354.673C852.593,354.708 852.378,354.724 852.12,354.72C851.862,354.716 851.581,354.683 851.276,354.62C851.276,354.917 851.345,355.195 851.481,355.452C851.618,355.71 851.769,355.956 851.933,356.191C852.097,356.425 852.249,356.652 852.39,356.87C852.53,357.089 852.601,357.308 852.601,357.527C852.601,357.628 852.569,357.695 852.507,357.726C852.46,357.757 852.39,357.773 852.296,357.773C852.218,357.773 852.134,357.743 852.044,357.685C851.954,357.626 851.872,357.554 851.798,357.468C851.724,357.382 851.655,357.292 851.593,357.199C851.538,357.105 851.495,357.027 851.464,356.964C851.433,356.902 851.202,356.441 851.124,356.284C851.046,356.128 850.968,355.966 850.89,355.798C850.811,355.63 850.735,355.468 850.661,355.312C850.587,355.156 850.522,355.015 850.468,354.89C850.405,354.773 850.362,354.683 850.339,354.62L850.21,354.491C850.171,354.507 850.099,354.525 849.993,354.544C849.888,354.564 849.776,354.585 849.659,354.609C849.542,354.632 849.429,354.656 849.319,354.679C849.21,354.702 849.132,354.714 849.085,354.714L849.026,354.714C848.964,354.714 848.921,354.693 848.897,354.65C848.874,354.607 848.862,354.554 848.862,354.491C848.862,354.359 848.909,354.257 849.003,354.187C849.097,354.116 849.21,354.066 849.343,354.034C849.476,354.003 849.614,353.982 849.759,353.97C849.903,353.958 850.022,353.949 850.116,353.941C850.101,353.706 850.089,353.429 850.081,353.109C850.073,352.788 850.089,352.456 850.128,352.113C850.167,351.769 850.231,351.431 850.321,351.099C850.411,350.767 850.54,350.468 850.708,350.202C850.876,349.937 851.089,349.722 851.347,349.558C851.604,349.394 851.921,349.312 852.296,349.312C852.507,349.312 852.737,349.365 852.987,349.47C853.237,349.575 853.47,349.714 853.685,349.886C853.899,350.058 854.077,350.251 854.218,350.466C854.358,350.681 854.429,350.898 854.429,351.116L854.159,351.116C854.003,351.116 853.864,351.058 853.743,350.941C853.622,350.824 853.495,350.693 853.362,350.548C853.229,350.404 853.089,350.273 852.94,350.156C852.792,350.038 852.624,349.98 852.436,349.98C852.171,349.98 851.929,350.038 851.71,350.156C851.491,350.273 851.304,350.429 851.147,350.624C850.991,350.82 850.874,351.038 850.796,351.281C850.718,351.523 850.679,351.769 850.679,352.019L850.679,352.136L850.89,353.812C850.905,353.827 850.948,353.841 851.019,353.853C851.089,353.865 851.2,353.88 851.352,353.9C851.505,353.919 851.708,353.941 851.962,353.964C852.216,353.988 852.538,354.011 852.929,354.034Z" style="fill-rule:nonzero;"/>
            <path d="M853.714,354.62C853.714,354.214 853.774,353.825 853.895,353.454C854.017,353.083 854.192,352.757 854.423,352.476C854.653,352.195 854.935,351.97 855.267,351.802C855.599,351.634 855.983,351.55 856.421,351.55C856.679,351.581 856.903,351.652 857.095,351.761C857.286,351.87 857.442,352.005 857.563,352.165C857.685,352.325 857.772,352.511 857.827,352.722C857.874,352.925 857.897,353.144 857.897,353.378C857.897,353.659 857.815,353.913 857.651,354.14C857.487,354.366 857.28,354.556 857.03,354.708C856.78,354.861 856.511,354.978 856.222,355.06C855.933,355.142 855.663,355.183 855.413,355.183L855.126,355.183C855.028,355.183 854.94,355.167 854.862,355.136C854.784,355.105 854.722,355.058 854.675,354.995C854.628,354.933 854.604,354.839 854.604,354.714C854.604,354.675 854.61,354.642 854.622,354.615C854.634,354.587 854.667,354.568 854.722,354.556C854.776,354.544 854.858,354.542 854.968,354.55C855.077,354.566 855.226,354.589 855.413,354.62C855.522,354.62 855.681,354.583 855.888,354.509C856.095,354.435 856.306,354.339 856.52,354.222C856.735,354.105 856.921,353.97 857.077,353.818C857.233,353.665 857.311,353.515 857.311,353.366C857.311,353.21 857.286,353.056 857.235,352.904C857.185,352.751 857.108,352.616 857.007,352.499C856.905,352.382 856.786,352.288 856.649,352.218C856.513,352.148 856.358,352.12 856.186,352.136C855.913,352.159 855.665,352.234 855.442,352.359C855.22,352.484 855.03,352.646 854.874,352.845C854.718,353.044 854.597,353.265 854.511,353.507C854.425,353.749 854.382,354.003 854.382,354.269C854.382,354.472 854.386,354.675 854.394,354.878C854.401,355.081 854.431,355.281 854.481,355.476C854.532,355.671 854.614,355.859 854.727,356.038C854.841,356.218 855.005,356.376 855.22,356.513C855.435,356.65 855.706,356.763 856.034,356.853C856.362,356.943 856.769,356.999 857.253,357.023L859.351,356.882C859.226,357.054 859.067,357.195 858.876,357.304C858.685,357.413 858.481,357.501 858.267,357.568C858.052,357.634 857.839,357.683 857.628,357.714C857.417,357.745 857.218,357.761 857.03,357.761C856.577,357.761 856.151,357.687 855.753,357.538C855.354,357.39 855.003,357.181 854.698,356.911C854.394,356.642 854.153,356.314 853.977,355.927C853.802,355.54 853.714,355.105 853.714,354.62ZM855.226,350.917C855.226,350.753 855.288,350.597 855.413,350.449C855.538,350.3 855.688,350.159 855.864,350.027C856.04,349.894 856.222,349.769 856.409,349.652C856.581,349.534 856.729,349.429 856.854,349.335C857.019,349.413 857.091,349.507 857.071,349.616C857.052,349.726 856.97,349.855 856.825,350.003C856.681,350.152 856.491,350.324 856.257,350.519C856.022,350.714 855.776,350.941 855.519,351.199C855.401,351.199 855.323,351.179 855.284,351.14C855.245,351.101 855.226,351.027 855.226,350.917Z" style="fill-rule:nonzero;"/>
        </g>
    </g>
</svg>
